<svg width="163" height="171" viewBox="0 0 163 171" fill="none" xmlns="http://www.w3.org/2000/svg">
<g clip-path="url(#clip0_846_91)">
<rect width="163" height="171" fill="white"/>
<rect width="163" height="171" fill="#060606"/>
<path fill-rule="evenodd" clip-rule="evenodd" d="M53.5 39C53.5 33.7533 57.7533 29.5 63 29.5H100C105.247 29.5 109.5 33.7533 109.5 39V47.5H128C131.038 47.5 133.5 49.9624 133.5 53C133.5 56.0376 131.038 58.5 128 58.5H124.003C124.327 59.6106 124.5 60.7851 124.5 62V137C124.5 143.904 118.904 149.5 112 149.5H52C45.0964 149.5 39.5 143.904 39.5 137V62C39.5 60.7851 39.6733 59.6106 39.9966 58.5H35C31.9624 58.5 29.5 56.0376 29.5 53C29.5 49.9624 31.9624 47.5 35 47.5H53.5V39ZM64.5 47.5H98.5V40.5H64.5V47.5ZM52 60.5C51.1716 60.5 50.5 61.1716 50.5 62V137C50.5 137.828 51.1716 138.5 52 138.5H112C112.828 138.5 113.5 137.828 113.5 137V62C113.5 61.1716 112.828 60.5 112 60.5H52ZM63 72.5C66.0376 72.5 68.5 74.9624 68.5 78V123.01C68.5 126.048 66.0376 128.51 63 128.51C59.9624 128.51 57.5 126.048 57.5 123.01V78C57.5 74.9624 59.9624 72.5 63 72.5ZM82 72.5C85.0376 72.5 87.5 74.9624 87.5 78V123.01C87.5 126.048 85.0376 128.51 82 128.51C78.9624 128.51 76.5 126.048 76.5 123.01V78C76.5 74.9624 78.9624 72.5 82 72.5ZM101 72.5C104.038 72.5 106.5 74.9624 106.5 78V123.01C106.5 126.048 104.038 128.51 101 128.51C97.9624 128.51 95.5 126.048 95.5 123.01V78C95.5 74.9624 97.9624 72.5 101 72.5Z" fill="white"/>
</g>
<defs>
<clipPath id="clip0_846_91">
<rect width="163" height="171" fill="white"/>
</clipPath>
</defs>
</svg>
